<svg class="logo" viewBox="0 0 100 100" xmlns="http://www.w3.org/2000/svg">
  <rect x="10" y="10" width="80" height="80" rx="8" ry="8" fill="#333333" stroke="#444444" stroke-width="1"/>
  <rect x="12" y="12" width="76" height="76" rx="6" ry="6" fill="#2a2a2a"/>
  <rect x="15" y="15" width="70" height="50" rx="2" ry="2" fill="#000000" stroke="#222222" stroke-width="0.5"/>
  <rect x="15" y="15" width="14" height="50" fill="#ffff00"/>
  <rect x="29" y="15" width="14" height="50" fill="#00ff00"/>
  <rect x="43" y="15" width="14" height="50" fill="#ff69b4"/>
  <rect x="57" y="15" width="14" height="50" fill="#ff0000"/>
  <rect x="71" y="15" width="14" height="50" fill="#4169e1"/>
  <rect x="15" y="70" width="70" height="15" rx="2" ry="2" fill="#222222"/>
  <circle cx="25" cy="77.5" r="3" fill="#444444" stroke="#555555" stroke-width="0.5"/>
  <circle cx="40" cy="77.5" r="3" fill="#444444" stroke="#555555" stroke-width="0.5"/>
  <circle cx="55" cy="77.5" r="3" fill="#444444" stroke="#555555" stroke-width="0.5"/>
  <circle cx="75" cy="77.5" r="4" fill="#666666" stroke="#777777" stroke-width="0.5"/>
  <circle cx="75" cy="77.5" r="2" fill="#555555"/>
  <line x1="30" y1="10" x2="40" y2="0" stroke="#666666" stroke-width="1.5"/>
  <line x1="70" y1="10" x2="60" y2="0" stroke="#666666" stroke-width="1.5"/>
</svg>

